<svg width="708" height="401" viewBox="0 0 708 401" fill="none" xmlns="http://www.w3.org/2000/svg">
<path fill-rule="evenodd" clip-rule="evenodd" d="M381.647 140.415C381.647 140.415 381.578 140.354 381.533 140.309C381.563 140.332 381.594 140.362 381.647 140.415ZM256.64 134.584L267.724 133.583C271.235 133.264 273.6 130.769 273.6 127.387V66.9181C273.6 64.0896 274.715 61.352 276.845 58.8799C278.983 56.5366 281.637 55.2096 284.738 54.929L299.643 53.5792C302.63 53.3062 305.193 54.1858 307.339 56.2788C309.499 58.258 310.583 60.715 310.583 63.5663V124.035C310.583 127.425 312.949 129.488 316.467 129.169L327.741 128.145C328.302 128.092 328.84 127.918 329.348 127.652C332.707 125.863 333.42 123.58 333.42 121.973V61.5037C333.42 58.66 334.534 55.9224 336.664 53.4654C338.803 51.1222 341.456 49.7951 344.557 49.5146L359.455 48.1647C362.473 47.8917 365.058 48.7714 367.348 50.8492C369.508 52.8284 370.592 55.2854 370.592 58.1367V118.606C370.592 121.988 372.958 124.058 376.468 123.739L387.545 122.738C391.055 122.42 393.421 119.925 393.421 116.543V56.0741C393.421 47.0727 389.979 39.9596 383.246 34.9774C376.734 29.9573 368.72 27.8568 359.447 28.6909L344.549 30.0407C335.762 30.837 328.196 33.9916 321.994 39.444C315.822 35.1139 308.309 33.3167 299.636 34.1054L284.73 35.4552C275.541 36.2893 267.489 39.8383 260.742 46.0642C254.214 52.2521 250.764 60.1766 250.764 68.9884V129.457C250.764 132.847 253.122 134.91 256.632 134.591L256.64 134.584ZM209.232 26.4235L227.769 24.7476C231.279 24.4291 233.645 21.9418 233.645 18.5521V10.0589C233.645 7.32888 231.825 4.74299 227.769 5.11457L209.232 6.79047C205.175 7.15447 203.363 10.074 203.363 12.7964V21.2897C203.363 24.6794 205.721 26.742 209.232 26.4235ZM280.522 211.106L311.804 208.52L296.019 166.638L280.522 211.106ZM522.977 127.895C522.802 127.895 522.719 127.888 522.696 127.888C522.734 127.888 522.863 127.888 522.977 127.895ZM555.631 99.0863C562.136 104.084 570.135 106.199 579.422 105.358C592.281 104.197 602.016 102.059 609.256 98.8512C611.758 97.7137 613.199 95.6056 613.199 93.0728V85.7701C613.199 80.9927 609.226 79.8779 606.405 80.8334C599.582 83.0932 590.772 84.6857 579.43 85.7094C576.329 85.99 573.675 85.1483 571.537 83.1766C569.392 81.1974 568.292 78.6949 568.292 75.7223V40.3843C568.292 37.4268 569.384 34.712 571.53 32.3612C573.683 30.0028 576.337 28.6758 579.43 28.3952C590.757 27.3714 599.825 27.3714 606.368 28.3876C609.582 28.9033 613.206 26.9695 613.206 22.23V14.9197C613.206 12.5158 611.917 10.7034 609.431 9.83894C602.243 7.93554 592.432 7.57913 579.437 8.75453C570.165 9.59628 562.091 13.2287 555.457 19.5379C548.929 25.7259 545.479 33.658 545.479 42.447V77.7849C545.479 86.7256 548.898 93.8766 555.654 99.0711L555.631 99.0863ZM404.809 31.838C406.128 31.1176 407.22 30.1317 408.091 29.017L430.511 52.1156L417.136 56.6428C416.712 55.3461 415.946 54.1783 414.816 53.3062C411.503 50.7582 406.537 51.5696 403.687 55.1262C400.843 58.6827 401.207 63.627 404.513 66.175C407.811 68.723 412.8 67.8964 415.635 64.3474C416.424 63.3767 416.939 62.2999 417.235 61.1852L430.655 67.4338C430.655 67.6992 430.617 67.957 430.617 68.2224C430.617 96.9327 453.9 118.105 482.627 115.504C511.354 112.903 534.645 87.5143 534.645 58.804C534.645 30.0938 511.354 8.92137 482.627 11.5224C471.861 12.5007 461.853 16.6715 453.559 23.0262L442.224 15.1776C443.058 13.8732 443.604 12.3642 443.68 10.7565C443.9 6.11556 440.329 2.49835 435.689 2.68034C431.064 2.88509 427.122 6.8208 426.902 11.4693C426.682 16.1103 430.253 19.7275 434.885 19.5228C436.151 19.4773 437.357 19.1208 438.456 18.5749L440.935 34.1281L410.29 23.7315C410.495 22.0252 410.267 20.2887 409.509 18.7038C407.303 14.0931 401.609 12.5007 396.795 15.1396C391.988 17.7786 389.88 23.6632 392.087 28.2738C394.293 32.8845 399.994 34.477 404.793 31.8304L404.809 31.838ZM494.174 81.2277C497.987 80.8789 501.066 83.6999 501.066 87.4991C501.066 91.2983 497.987 94.6729 494.174 95.0217C490.36 95.3629 487.282 92.5571 487.282 88.7503C487.282 84.9435 490.36 81.5766 494.174 81.2353V81.2277ZM470.185 83.3966C474.007 83.0477 477.085 85.8687 477.085 89.6679C477.085 93.4671 473.999 96.8417 470.185 97.1905C466.372 97.5393 463.294 94.7259 463.294 90.9191C463.294 87.1123 466.372 83.7454 470.185 83.4041V83.3966ZM381.904 140.635C382.928 141.598 383.974 142.864 385.043 144.442C386.112 146.019 387.219 147.665 388.364 149.378L429.146 207.686V145.443C429.146 141.401 430.01 138.292 431.754 136.123C431.799 136.07 431.852 136.017 431.898 135.964L381.639 140.407C381.73 140.483 381.821 140.552 381.904 140.627V140.635ZM507.214 145.428L493.219 146.58V217.605L509.292 216.278C512.817 215.99 515.577 215.664 517.579 215.307C519.58 214.951 521.65 214.306 523.795 213.366C525.941 212.426 527.799 211.205 529.368 209.696C536.464 203.113 540.013 192.497 540.013 177.838C540.013 167.51 538.451 159.904 535.335 155.028C532.211 150.144 528.367 147.195 523.803 146.163C519.231 145.139 513.704 144.889 507.23 145.428H507.214ZM224.137 40.9379L212.863 41.9616C208.807 42.3256 206.987 45.2528 206.987 47.9827V133.416C206.987 136.798 209.353 138.868 212.863 138.55L224.137 137.526C227.64 137.207 230.005 134.712 230.005 131.33V45.8973C230.005 43.1674 228.193 40.5739 224.137 40.9379ZM656.179 139.224C655.163 139.224 655.125 139.952 655.125 139.952C655.125 140.043 655.133 140.127 655.133 140.218C655.133 142.743 654.238 145.086 652.457 147.255C650.667 149.424 648.446 150.622 645.777 150.842C643.351 151.039 641.501 150.592 640.243 149.477C638.984 148.37 637.612 146.497 636.133 143.858C634.23 140.066 631.941 137.169 629.279 135.183C626.611 133.188 622.327 132.437 616.421 132.923C610.947 133.378 606.527 134.94 603.176 137.624C599.817 140.309 598.141 143.335 598.141 146.717C598.141 148.81 598.71 150.569 599.855 152.002C601 153.428 602.569 154.611 604.571 155.536C606.572 156.469 608.597 157.159 610.644 157.606C612.691 158.054 616.072 158.683 620.788 159.479C626.694 160.374 632.039 161.451 636.823 162.725C641.607 163.999 645.679 165.682 649.037 167.783C652.396 169.884 655.012 172.682 656.892 176.163C656.998 176.36 657.089 176.564 657.188 176.769V139.96C657.188 139.96 657.051 139.232 656.187 139.232L656.179 139.224ZM640.493 219.804C634.207 223.179 626.755 225.219 618.134 225.931C607.8 226.781 599.279 225.537 592.569 222.185C587.808 219.774 583.941 216.339 580.961 211.902C577.982 207.459 576.496 203.022 576.496 198.601C576.496 196.031 577.39 193.756 579.172 191.776C580.961 189.797 583.228 188.69 585.996 188.463C588.232 188.281 590.128 188.834 591.674 190.138C593.221 191.435 594.54 193.445 595.639 196.167C596.974 199.39 598.414 202.052 599.961 204.16C601.508 206.268 603.684 207.936 606.496 209.15C609.309 210.371 612.994 210.788 617.566 210.416C623.851 209.9 628.961 208.012 632.888 204.759C636.816 201.506 638.779 197.691 638.779 193.316C638.779 189.843 637.718 187.113 635.603 185.118C633.487 183.132 630.743 181.698 627.392 180.834C624.033 179.969 619.545 179.128 613.926 178.301C606.398 177.164 600.105 175.624 595.033 173.683C589.961 171.742 585.935 168.867 582.963 165.046C579.983 161.224 578.497 156.287 578.497 150.243C578.497 144.199 580.067 139.24 583.213 134.508C586.352 129.776 590.901 125.961 596.853 123.065C598.521 122.253 600.279 121.54 602.107 120.903L523.151 127.888C526.04 127.979 528.708 128.236 531.142 128.669C536.283 129.579 540.953 131.687 545.138 135.008C556.04 143.433 561.492 157.166 561.492 176.2C561.492 182.479 560.946 188.265 559.846 193.536C558.747 198.814 557.064 203.629 554.774 207.982C552.485 212.335 549.558 216.301 545.987 219.88C543.174 222.633 540.104 224.908 536.775 226.705C533.439 228.502 529.861 229.867 526.025 230.808C522.188 231.74 517.867 232.408 513.06 232.802L485.417 235.084C481.558 235.403 478.654 235.062 476.706 234.053C474.75 233.052 473.476 231.513 472.884 229.443C472.286 227.372 471.99 224.65 471.99 221.268V144.533C471.99 139.968 473.013 136.57 475.06 134.356C476.054 133.287 477.35 132.43 478.927 131.785L445.765 134.72C445.841 134.796 445.916 134.857 445.992 134.932C447.751 136.813 448.631 139.77 448.631 143.812V226.121C448.631 235.304 444.817 240.211 437.205 240.84C435.302 240.999 433.589 240.863 432.065 240.446C430.541 240.021 429.115 239.27 427.781 238.194C426.447 237.117 425.211 235.828 424.066 234.326C422.921 232.825 421.784 231.293 420.639 229.716L380.858 172.037V233.355C380.858 237.352 379.933 240.453 378.076 242.653C376.218 244.852 373.837 246.073 370.934 246.315C367.931 246.566 365.528 245.724 363.723 243.805C361.911 241.887 361.009 238.952 361.009 235.001V154.262C361.009 150.834 361.388 148.12 362.154 146.103C362.806 144.51 363.761 143.1 365.028 141.863L306.262 147.058C307.043 147.703 307.74 148.438 308.339 149.257C309.552 150.918 310.576 152.723 311.41 154.679C312.244 156.636 313.305 159.244 314.587 162.52L341.941 227.789C344.087 232.749 345.156 236.396 345.156 238.732C345.156 241.068 344.14 243.464 342.123 245.656C340.099 247.847 337.658 249.06 334.799 249.295C333.131 249.432 331.706 249.25 330.516 248.757C329.325 248.257 328.325 247.536 327.513 246.581C326.702 245.625 325.838 244.124 324.905 242.084C323.98 240.044 323.177 238.239 322.51 236.677L317.513 223.952L274.95 227.463L269.946 241.295C267.99 246.694 266.329 250.365 264.949 252.306C263.569 254.247 261.31 255.355 258.164 255.612C255.495 255.832 253.137 255.051 251.09 253.269C249.043 251.487 248.019 249.356 248.019 246.884C248.019 245.458 248.255 243.964 248.732 242.395C249.21 240.833 249.991 238.649 251.09 235.85L277.876 165.682C278.634 163.665 279.552 161.246 280.628 158.425C281.697 155.604 282.842 153.238 284.055 151.327C284.624 150.433 285.283 149.606 286.026 148.84L217.314 154.914C217.897 155.081 218.474 155.271 219.027 155.475C222.31 156.583 225.214 158.319 227.739 160.678C230.263 163.036 232.181 165.872 233.485 169.163C234.797 172.454 235.449 176.011 235.449 179.818C235.449 187.621 233.243 194.036 228.845 199.064C224.44 204.092 217.761 207.952 208.815 210.636C212.575 212.327 216.169 214.981 219.596 218.598C223.023 222.216 226.086 226.121 228.777 230.299C231.469 234.478 233.561 238.285 235.062 241.705C236.564 245.125 237.314 247.506 237.314 248.833C237.314 250.16 236.874 251.616 235.995 253.049C235.115 254.475 233.91 255.65 232.386 256.56C230.862 257.47 229.103 258.009 227.102 258.176C224.721 258.373 222.719 257.978 221.105 256.993C219.482 256.007 218.095 254.71 216.927 253.087C215.759 251.472 214.175 249.076 212.173 245.913L203.674 232.483C200.626 227.547 197.897 223.823 195.494 221.306C193.09 218.788 190.649 217.135 188.17 216.339C185.69 215.542 182.574 215.3 178.814 215.611L171.384 216.225V249.849C171.384 254.278 170.406 257.614 168.457 259.867C166.501 262.119 163.954 263.378 160.815 263.635C157.434 263.916 154.818 263.036 152.96 260.996C151.103 258.964 150.178 255.825 150.178 251.593V171.074C150.178 166.509 151.201 163.112 153.248 160.897C153.362 160.776 153.499 160.662 153.62 160.541L111.701 164.249C112.709 164.613 113.68 165.03 114.605 165.516C117.084 166.79 119.267 168.473 121.178 170.574C123.081 172.674 124.537 175.055 125.537 177.71C126.538 180.364 127.039 183.215 127.039 186.256C127.039 196.728 121.8 204.82 111.329 210.537C125.09 213.783 131.967 221.73 131.967 234.387C131.967 240.241 130.466 245.633 127.463 250.569C124.461 255.506 120.42 259.298 115.325 261.96C112.133 263.56 108.471 264.796 104.324 265.691C100.184 266.578 95.3472 267.253 89.8277 267.708L57.8255 270.347C53.2082 270.726 49.9102 269.967 47.9314 268.057C47.7418 267.875 47.5599 267.67 47.3931 267.465V271.605C47.3931 271.605 47.7873 272.371 48.5607 272.569C74.8009 279.447 535.213 400.089 535.213 400.089L657.188 207.959V202.067C656.52 203.659 655.747 205.214 654.822 206.716C651.562 212.031 646.785 216.377 640.5 219.744L640.493 219.804ZM523.151 127.895C523.098 127.895 523.075 127.895 523.037 127.895C523.106 127.895 523.151 127.895 523.151 127.895ZM657.347 201.711C657.286 201.855 657.233 201.984 657.203 202.059C657.256 201.93 657.301 201.817 657.347 201.711ZM480.171 131.376C479.746 131.505 479.336 131.649 478.95 131.808L480.171 131.702V131.376ZM698.015 6.46439C691.495 1.44427 683.488 -0.656291 674.216 0.177868C662.601 1.23194 653.859 2.74859 648.074 4.75057C643.95 6.32789 643.503 9.40669 643.503 10.6579V18.2943C643.503 19.773 643.897 21.0015 644.663 21.9267C645.641 23.1021 647.104 23.6632 648.787 23.504C649.068 23.4812 649.742 23.3599 650.015 23.2765C654.496 21.9115 662.639 20.6982 674.224 19.6517C677.211 19.3787 679.773 20.2583 681.927 22.3513C684.087 24.3305 685.172 26.7875 685.172 29.6388V34.6893L659.318 37.0325C650.03 37.8743 641.964 41.4915 635.33 47.8083C628.711 54.0948 625.352 61.7463 625.352 70.5581C625.352 79.3698 628.771 86.6422 635.527 91.8443C642.039 96.8341 650.038 98.9574 659.318 98.1157L702.314 94.2254C705.657 93.9221 708 91.3741 708 88.0451V27.5838C708 18.7872 704.55 11.4845 698.022 6.47197L698.015 6.46439ZM685.164 76.1394L659.31 78.4826C656.21 78.7632 653.556 77.9214 651.418 75.9498C649.265 73.9706 648.165 71.4757 648.165 68.4954C648.165 65.5152 649.257 62.9824 651.418 60.6316C653.556 58.2884 656.21 56.9613 659.31 56.6807L685.164 54.3375V76.1394ZM104.893 223.603C101.178 221.533 95.6277 220.798 88.2508 221.404L66.1805 223.224V253.777L88.9634 251.897C103.293 250.714 110.465 244.958 110.465 234.629C110.465 229.344 108.608 225.674 104.893 223.596V223.603ZM171.384 201.051L190.384 199.481C195.478 199.064 199.762 198.268 203.242 197.1C206.714 195.932 209.376 194.218 211.203 191.943C213.038 189.676 213.955 186.681 213.955 182.972C213.955 180.068 213.22 177.573 211.741 175.48C210.263 173.387 208.216 171.908 205.6 171.029C203.121 170.187 198.246 170.066 190.96 170.665L171.391 172.28V201.051H171.384ZM111.701 164.287C111.655 164.272 111.633 164.264 111.595 164.249C111.655 164.272 111.701 164.287 111.701 164.287ZM109.464 147.907L120.549 146.906C124.059 146.588 126.417 144.093 126.417 140.711V80.2419C126.417 77.4134 127.531 74.6758 129.669 72.2037C131.807 69.8604 134.461 68.5334 137.562 68.2528L152.475 66.903C155.462 66.63 158.017 67.5096 160.171 69.6026C162.324 71.5818 163.416 74.0388 163.416 76.8901V137.359C163.416 140.741 165.773 142.811 169.284 142.493L180.565 141.469C183.909 141.166 186.244 138.618 186.244 135.289V74.8199C186.244 65.8186 182.802 58.7055 176.069 53.7233C169.557 48.7031 161.619 46.595 152.468 47.4216L137.554 48.7714C128.373 49.6056 120.314 53.1545 113.574 59.3804C107.046 65.5683 103.596 73.4928 103.596 82.3046V142.773C103.596 146.156 105.962 148.226 109.472 147.907H109.464ZM66.1805 208.027L85.6047 206.427C90.8892 205.988 94.9757 205.153 97.8567 203.917C100.738 202.681 102.936 200.596 104.46 197.661C105.651 195.561 106.25 193.278 106.25 190.806C106.25 185.52 104.369 182.168 100.609 180.743C96.8484 179.317 91.109 178.923 83.3985 179.56L66.1881 180.978V208.035L66.1805 208.027ZM82.6555 144.669V84.2004C82.6555 75.4038 79.2058 68.1011 72.6704 63.0886C66.1502 58.0685 58.1439 55.9679 48.8791 56.8021C37.264 57.8561 28.5147 59.3728 22.7299 61.3748C18.6054 62.9521 18.1657 66.0309 18.1657 67.2821V74.9185C18.1657 76.3972 18.56 77.6181 19.3181 78.5509C20.2962 79.7263 21.7594 80.2874 23.4426 80.1282C23.7231 80.1054 24.3978 79.9841 24.6632 79.9007C29.1516 78.5357 37.2867 77.3224 48.8715 76.2759C51.8511 76.0029 54.4213 76.8825 56.5745 78.9755C58.7277 80.9547 59.8119 83.4117 59.8119 86.263V91.3135L33.9659 93.6567C24.6784 94.4984 16.6115 98.1157 9.97749 104.425C3.35868 110.727 0 118.378 0 127.182C0 135.986 3.42692 143.274 10.1746 148.468C16.6797 153.458 24.6859 155.582 33.9659 154.74L76.9616 150.85C80.3127 150.546 82.6479 147.998 82.6479 144.669H82.6555ZM59.8195 132.764L33.9735 135.107C30.8726 135.387 28.219 134.546 26.081 132.574C23.9202 130.595 22.836 128.1 22.836 125.12C22.836 122.139 23.9202 119.607 26.081 117.256C28.219 114.913 30.8726 113.586 33.9735 113.305L59.8195 110.962V132.764Z" fill="#12ACEC"/>
</svg>
